<?xml version="1.0" encoding="UTF-8"?>
<svg id="Layer_1" data-name="Layer 1" xmlns="http://www.w3.org/2000/svg" viewBox="0 0 415.68 55.3">
  <defs>
    <style>
      .cls-1 {
        fill: #fff;
      }
    </style>
  </defs>
  <path class="cls-1" d="M52.81,17.11c0-8.12,0-9.62-.11-11.33-.11-1.82-.64-2.72-1.82-2.99-.59-.16-1.28-.21-1.92-.21-.53,0-.85-.11-.85-.53,0-.32,.43-.43,1.28-.43,2.03,0,5.4,.16,6.95,.16,1.34,0,4.49-.16,6.52-.16,.69,0,1.12,.11,1.12,.43,0,.43-.32,.53-.85,.53s-.96,.05-1.6,.16c-1.44,.27-1.87,1.18-1.98,3.05-.11,1.71-.11,3.21-.11,11.33v9.4c0,5.18,0,9.4,.21,11.7,.16,1.44,.53,2.4,2.14,2.62,.75,.11,1.92,.21,2.72,.21,.59,0,.85,.16,.85,.43,0,.37-.43,.53-1.02,.53-3.53,0-6.89-.16-8.33-.16-1.23,0-4.59,.16-6.73,.16-.69,0-1.07-.16-1.07-.53,0-.27,.21-.43,.85-.43,.8,0,1.44-.11,1.92-.21,1.07-.21,1.39-1.12,1.55-2.67,.27-2.24,.27-6.46,.27-11.65v-9.4Z"/>
  <path class="cls-1" d="M94.8,25.39c.27,0,.32-.16,.27-.32l-4.81-13.2c-.05-.21-.11-.48-.27-.48s-.27,.27-.32,.48l-4.92,13.14c-.05,.21,0,.37,.21,.37h9.83Zm-10.9,2.67c-.27,0-.37,.11-.48,.43l-2.88,7.64c-.53,1.34-.8,2.62-.8,3.26,0,.96,.48,1.66,2.14,1.66h.8c.64,0,.8,.11,.8,.43,0,.43-.32,.53-.91,.53-1.71,0-4.01-.16-5.66-.16-.59,0-3.53,.16-6.3,.16-.69,0-1.01-.11-1.01-.53,0-.32,.21-.43,.64-.43,.48,0,1.23-.05,1.66-.11,2.46-.32,3.47-2.14,4.54-4.81L89.83,2.58c.64-1.55,.96-2.14,1.5-2.14,.48,0,.8,.48,1.34,1.71,1.28,2.94,9.83,24.74,13.25,32.86,2.03,4.81,3.58,5.56,4.7,5.82,.8,.16,1.6,.21,2.24,.21,.43,0,.69,.05,.69,.43,0,.43-.48,.53-2.46,.53s-5.82,0-10.1-.11c-.96-.05-1.6-.05-1.6-.43,0-.32,.21-.43,.75-.48,.37-.11,.75-.59,.48-1.23l-4.27-11.33c-.11-.27-.27-.37-.53-.37h-11.91Z"/>
  <path class="cls-1" d="M126.96,34.74c.11,4.17,.8,5.56,1.87,5.93,.91,.32,1.92,.37,2.78,.37,.59,0,.91,.11,.91,.43,0,.43-.48,.53-1.23,.53-3.47,0-5.61-.16-6.62-.16-.48,0-2.99,.16-5.77,.16-.69,0-1.18-.05-1.18-.53,0-.32,.32-.43,.85-.43,.69,0,1.66-.05,2.4-.27,1.39-.43,1.6-1.98,1.66-6.62l.48-31.63c0-1.07,.16-1.82,.69-1.82,.59,0,1.07,.69,1.98,1.66,.64,.69,8.76,9.4,16.56,17.15,3.63,3.63,10.85,11.33,11.75,12.18h.27l-.53-23.99c-.05-3.26-.53-4.27-1.82-4.81-.8-.32-2.08-.32-2.83-.32-.64,0-.85-.16-.85-.48,0-.43,.59-.48,1.39-.48,2.78,0,5.34,.16,6.46,.16,.59,0,2.62-.16,5.24-.16,.69,0,1.23,.05,1.23,.48,0,.32-.32,.48-.96,.48-.53,0-.96,0-1.6,.16-1.5,.43-1.92,1.55-1.98,4.54l-.59,33.71c0,1.18-.21,1.66-.69,1.66-.59,0-1.23-.59-1.82-1.18-3.37-3.21-10.2-10.2-15.76-15.71-5.82-5.77-11.75-12.45-12.71-13.46h-.16l.59,22.44Z"/>
  <path class="cls-1" d="M19.81,19.8c-.75,.59-1.5,1.19-2.37,1.59-.68,.3-1.4,.45-2.14,.45-1.56,0-3.12-.03-4.67-.05-.31,0-.56-.2-.62-.5-.03-.15-.03-.31-.03-.46,0-2.61,0-5.21,0-7.82s0-5.29,.01-7.93c0-.31,.11-.62,.24-.91,.1-.24,.37-.31,.63-.31,1.6,.01,3.21-.05,4.8,.07,2,.16,3.63,1.06,4.88,2.69,.95,1.25,1.43,2.64,1.64,4.17,.18,1.36,.16,2.72,.1,4.09-.05,1.11-.33,2.18-.89,3.14-.4,.69-.93,1.28-1.56,1.77m56.52,27.39c-.11,.06-.23,.12-.34,.19-.66,.42-1.29,.89-1.97,1.27-3.17,1.73-6.52,3.03-9.99,4.02-1.17,.33-2.35,.63-3.58,.67-1.06,.03-2.11,.02-3.17,.02-1.18,0-2.36-.04-3.54-.24-1.06-.17-2.08-.48-3.1-.81-1.5-.48-2.96-1.03-4.33-1.82-.92-.53-1.82-1.09-2.72-1.66-.64-.4-1.27-.81-1.87-1.27-.62-.48-1.19-1.01-1.78-1.53-1.96-1.72-3.94-3.43-5.75-5.31-2.17-2.25-4.14-4.66-5.97-7.17-1.06-1.45-2-2.98-2.97-4.48-1.06-1.63-2.1-3.28-3.13-4.93-.17-.26-.27-.57-.37-.87-.05-.17,0-.32,.22-.39,1.14-.37,2.11-1.04,2.95-1.86,.75-.73,1.42-1.56,2.1-2.37,1.05-1.27,1.58-2.76,1.75-4.38,.17-1.6-.03-3.17-.41-4.73-.45-1.88-1.49-3.4-2.88-4.69-.99-.91-2.11-1.62-3.39-2.08-1.89-.69-3.81-1.09-5.83-1.08-4.99,.01-9.99,0-14.98,0-.16,0-.33,.02-.48,.05-.08,.02-.15,.09-.23,.14,.06,.08,.11,.18,.18,.24,.3,.22,.64,.38,.9,.63,.71,.69,1.41,1.4,1.95,2.24,.1,.15,.17,.34,.17,.52,0,6.04,0,12.08,0,18.12,0,2.91-.03,5.83-.02,8.74,0,1.84,.03,3.68,.05,5.52,0,.12-.01,.24-.04,.35-.13,.62-.45,1.13-.86,1.62-.73,.87-1.51,1.68-2.67,1.96-.08,.02-.14,.16-.21,.24,.09,.04,.18,.09,.27,.12,.05,.02,.11,0,.16,0H12.54s.1,.02,.14,0c.08-.05,.16-.12,.24-.18-.06-.06-.11-.15-.18-.17-.89-.2-1.49-.79-1.96-1.5-.29-.44-.59-.93-.67-1.44-.17-1-.27-2.02-.29-3.04-.05-3.7-.05-7.4-.07-11.1,0-.15,.06-.32,.14-.46,.28-.46,.71-.67,1.26-.66,.92,.02,1.84,.05,2.76-.01,.52-.03,.9,.14,1.22,.5,.34,.39,.67,.8,.96,1.23,.95,1.41,1.9,2.82,2.79,4.27,2.05,3.32,4.24,6.53,6.74,9.53,1.25,1.51,2.57,2.95,3.98,4.31,1.27,1.22,2.56,2.41,3.96,3.47,1.9,1.44,3.88,2.77,5.92,4,1.62,.98,3.31,1.81,5.11,2.39,2.58,.84,5.21,1.5,7.92,1.78,.84,.09,1.69,.21,2.53,.17,1.35-.07,2.69-.24,4.04-.42,1.7-.22,3.38-.58,5.02-1.09,2.08-.66,4.19-1.26,6.1-2.36,1.26-.72,2.55-1.39,3.78-2.17,.81-.51,1.53-1.17,2.29-1.76,.07-.05,.11-.15,.16-.22l-.07-.08Z"/>
  <path class="cls-1" d="M192.45,25.63h-9.81c-.21,0-.27-.25-.21-.47l3.28-8.81v-.03s0-.01,0-.01l1.62-4.35c.05-.21,.16-.48,.32-.48s.21,.27,.27,.48l1.03,2.83h0s3.77,10.43,3.77,10.43c.05,.16,0,.41-.27,.41m-18.34,10.53c-1.07,2.67-2.08,4.47-4.53,4.79-.43,.05-1.17,.1-1.65,.1-.43,0-.64,.11-.64,.43,0,.43,.32,.53,1.01,.53,2.77,0,5.7-.16,6.29-.16,1.65,0,3.94,.16,5.65,.16,.59,0,.91-.1,.91-.53,0-.32-.16-.42-.8-.42h-.8c-1.65,0-2.13-.7-2.13-1.66,0-.64,.27-1.92,.8-3.26l2.88-7.62c.11-.32,.21-.42,.48-.42h11.89c.27,0,.43,.1,.53,.37l4.26,11.3c.27,.64-.11,1.12-.48,1.22-.53,.05-.75,.16-.75,.48,0,.37,.64,.37,1.6,.43,4.26,.11,8.16,.11,10.08,.11s2.45-.11,2.45-.53c0-.37-.27-.43-.69-.43-.64,0-1.44-.05-2.24-.21-1.12-.27-2.67-1.01-4.69-5.81-2.63-6.25-8.3-20.61-11.35-28.2-.44-1.09-.82-2.05-1.14-2.81-.57-.87-1.3-1.64-2.16-2.27-.06-.04-.12-.09-.18-.13-.09-.06-.19-.13-.28-.19-.09-.06-.19-.12-.29-.18C186.76,.46,185.14,0,183.4,0,180.11,0,177.23,1.66,175.69,4.13c0,0,0,0,0,0,1.28-.6,2.82-.95,4.48-.95,1.34,0,2.6,.23,3.71,.63,.18,.07,.36,.14,.54,.21,.17,.08,.34,.16,.51,.24,.6,.45,.99,1.16,.99,1.96,0,.2-.05,.38-.09,.57"/>
  <path class="cls-1" d="M245.76,2h13.86v1.08h-.76c-.51,0-1.25,.22-2.23,.67-.98,.45-1.87,1.09-2.67,1.93-.8,.84-1.79,2.21-2.96,4.1l-9.58,15.09v9.96c0,2.44,.27,3.97,.82,4.57,.74,.82,1.91,1.23,3.52,1.23h1.29v1.08h-16.88v-1.08h1.41c1.68,0,2.87-.51,3.57-1.52,.43-.62,.64-2.05,.64-4.28v-9.4l-10.9-16.64c-1.29-1.95-2.16-3.17-2.62-3.66-.46-.49-1.41-1.07-2.86-1.76-.39-.19-.96-.29-1.7-.29v-1.08h16.99v1.08h-.88c-.92,0-1.76,.22-2.53,.64-.77,.43-1.16,1.07-1.16,1.93,0,.7,.6,1.97,1.79,3.81l8.29,12.8,7.79-12.25c1.17-1.84,1.76-3.2,1.76-4.1,0-.55-.14-1.04-.42-1.46-.28-.43-.69-.77-1.22-1.01-.53-.24-1.32-.37-2.37-.37v-1.08Z"/>
  <path class="cls-1" d="M281.3,28.43h-15.38l-2.7,6.27c-.66,1.54-1,2.7-1,3.46,0,.61,.29,1.14,.86,1.6,.58,.46,1.82,.76,3.74,.89v1.08h-12.51v-1.08c1.66-.29,2.73-.67,3.22-1.14,1-.94,2.1-2.84,3.31-5.71L274.82,1.09h1.03l13.83,33.05c1.11,2.66,2.12,4.38,3.03,5.17s2.17,1.24,3.79,1.33v1.08h-15.67v-1.08c1.58-.08,2.65-.34,3.21-.79,.56-.45,.83-1,.83-1.64,0-.86-.39-2.22-1.17-4.07l-2.4-5.71Zm-.82-2.17l-6.74-16.05-6.91,16.05h13.65Z"/>
  <path class="cls-1" d="M333.3,1.09l.91,13.51h-.91c-1.21-4.04-2.94-6.95-5.19-8.73-2.25-1.78-4.94-2.67-8.09-2.67-2.64,0-5.02,.67-7.15,2.01-2.13,1.34-3.8,3.47-5.02,6.4-1.22,2.93-1.83,6.57-1.83,10.93,0,3.59,.58,6.71,1.73,9.35,1.15,2.64,2.89,4.66,5.2,6.06s4.96,2.11,7.92,2.11c2.58,0,4.85-.55,6.83-1.66,1.97-1.1,4.14-3.3,6.5-6.58l.91,.59c-1.99,3.54-4.32,6.12-6.97,7.76s-5.81,2.46-9.46,2.46c-6.58,0-11.68-2.44-15.29-7.32-2.7-3.63-4.04-7.91-4.04-12.83,0-3.96,.89-7.61,2.67-10.93,1.78-3.32,4.22-5.89,7.34-7.72,3.12-1.83,6.52-2.74,10.21-2.74,2.87,0,5.7,.7,8.5,2.11,.82,.43,1.41,.64,1.76,.64,.53,0,.99-.19,1.38-.56,.51-.53,.87-1.26,1.08-2.2h1.03Z"/>
  <path class="cls-1" d="M349.53,20.43h18.46V9.06c0-2.03-.13-3.37-.38-4.01-.2-.49-.61-.91-1.23-1.26-.84-.47-1.73-.7-2.67-.7h-1.41v-1.08h16.99v1.08h-1.41c-.94,0-1.83,.22-2.67,.67-.62,.31-1.05,.79-1.27,1.42-.22,.63-.34,1.93-.34,3.88v25.63c0,2.01,.13,3.34,.38,3.98,.2,.49,.6,.91,1.2,1.26,.86,.47,1.76,.7,2.7,.7h1.41v1.08h-16.99v-1.08h1.41c1.62,0,2.8-.48,3.54-1.44,.49-.62,.73-2.13,.73-4.51v-12.1h-18.46v12.1c0,2.01,.13,3.34,.38,3.98,.2,.49,.61,.91,1.23,1.26,.84,.47,1.73,.7,2.67,.7h1.44v1.08h-17.02v-1.08h1.41c1.64,0,2.83-.48,3.57-1.44,.47-.62,.7-2.13,.7-4.51V9.06c0-2.03-.13-3.37-.38-4.01-.2-.49-.6-.91-1.2-1.26-.86-.47-1.76-.7-2.7-.7h-1.41v-1.08h17.02v1.08h-1.44c-.94,0-1.83,.22-2.67,.67-.61,.31-1.03,.79-1.26,1.42-.23,.63-.35,1.93-.35,3.88v11.37Z"/>
  <path class="cls-1" d="M415.24,2l.44,9.32h-1.11c-.21-1.64-.51-2.81-.88-3.52-.61-1.13-1.41-1.97-2.42-2.5-1.01-.54-2.33-.81-3.97-.81h-5.6v30.35c0,2.44,.26,3.97,.79,4.57,.74,.82,1.88,1.23,3.43,1.23h1.38v1.08h-16.85v-1.08h1.41c1.68,0,2.87-.51,3.57-1.52,.43-.62,.64-2.05,.64-4.28V4.49h-4.78c-1.86,0-3.17,.14-3.96,.41-1.02,.37-1.88,1.08-2.61,2.14s-1.15,2.48-1.29,4.28h-1.11l.47-9.32h32.43Z"/>
</svg>